<svg xmlns="http://www.w3.org/2000/svg" width="16" height="16" version="1.1" viewBox="0 0 16 16"><path fill="#0c0c0d" fill-opacity=".533" d="m14 1a1 1 0 1 0 1 1 1 1 0 0 0-1-1z"/><path fill="#0c0c0d" fill-opacity=".8" d="m11 1h-9a1 1 0 0 0 0 2h9a1 1 0 0 0 0-2z"/><path fill="#0c0c0d" fill-opacity=".533" d="m11 9a1 1 0 1 0 1 1 1 1 0 0 0-1-1z"/><path fill="#0c0c0d" fill-opacity=".8" d="m8 9h-6a1 1 0 0 0 0 2h6a1 1 0 0 0 0-2z"/><path fill="#0c0c0d" fill-opacity=".533" d="m8 5a1 1 0 1 0 1 1 1 1 0 0 0-1-1z"/><path fill="#0c0c0d" fill-opacity=".8" d="m5 5h-3a1 1 0 0 0 0 2h3a1 1 0 0 0 0-2z"/><path fill="#0c0c0d" fill-opacity=".533" d="m14 13a1 1 0 1 0 1 1 1 1 0 0 0-1-1z"/><path fill="#0c0c0d" fill-opacity=".8" d="m11 13h-9a1 1 0 0 0 0 2h9a1 1 0 0 0 0-2z"/></svg>