<svg xmlns="http://www.w3.org/2000/svg" xmlns:xlink="http://www.w3.org/1999/xlink" width="591" height="488" version="1.1" viewBox="0 0 591 488"><title>Untitled 4</title><desc>Created with Sketch.</desc><g id="Page-1" fill="none" fill-rule="evenodd" stroke="none" stroke-width="1"><g id="browser"><g id="Rectangle-Copy-2"><g id="path-1-link" fill="#D7D7DB"><rect id="path-1" width="591" height="488" x="0" y="0" rx="8"/></g><rect id="Rectangle" width="590" height="487" x=".5" y=".5" stroke="#979797" rx="8"/></g><g id="Gecko-Profiler" transform="translate(42.000000, 245.000000)"><g id="Rectangle"><g id="path-2-link" fill="#FFF"><rect id="path-2" width="138" height="54" x="0" y="0" rx="8"/></g><rect width="137" height="53" x=".5" y=".5" stroke="#979797" rx="8"/></g><g id="Group" fill="#0A84FF" font-family="sans-serif" font-size="17" font-weight="bold" transform="translate(12.000000, 8.000000)"><text id="Gecko-Profiler"><tspan x=".895" y="16">Gecko Profiler</tspan></text></g><g id="C++-Native-Code" fill="#000" font-family="sans-serif" font-size="12" font-weight="normal"><text transform="translate(23.000000, 31.000000)"><tspan x=".475" y="11">C++ Native Code</tspan></text></g></g><g id="Gecko-Profiler" transform="translate(333.000000, 148.000000)"><g id="Rectangle" transform="translate(15.000000, 93.000000)"><g id="path-3-link" fill="#FFF"><rect id="path-3" width="168" height="78" x="0" y="0" rx="8"/></g><rect width="167" height="77" x=".5" y=".5" stroke="#979797" rx="8"/></g><g id="profiler.firefox.com" fill="#0A84FF" font-family="sans-serif" font-size="17" font-weight="bold"><text transform="translate(23.000000, 101.000000)"><tspan x="0" y="16">profiler.firefox.com</tspan></text></g><g id="unprivileged-webpage" font-family="sans-serif" font-size="12" font-weight="normal" transform="translate(35.000000, 131.000000)"><text fill="#000"><tspan x="4.623" y="11">unprivileged webpage</tspan></text><text id="https://profiler.firefox.com" fill="#0A84FF"><tspan x="0" y="25">https://profiler.firefox.com</tspan></text></g><g id="Opens-up-a-new-windo" fill="#0A84FF" font-family="sans-serif" font-size="12" font-weight="bold"><text id="Opens-up-a-new-window"><tspan x="0" y="11">Opens up a new window</tspan></text><text id="with-profiler.firefo"><tspan x="0" y="25">with profiler.firefox.com. Then injects the</tspan></text><text id="JSON-profile-content"><tspan x="0" y="39">JSON profile content via a frame script.</tspan></text></g></g><g id="Group-4" transform="translate(47.000000, 393.000000)"><g id="Gecko-Profiler-Copy" transform="translate(331.000000, 0.000000)"><g id="Rectangle"><g id="path-4-link" fill="#FFF"><rect id="path-4" width="154" height="71" x="0" y="0" rx="8"/></g><rect width="153" height="70" x=".5" y=".5" stroke="#979797" rx="8"/></g><g id="Content-Window" fill="#0A84FF" font-family="sans-serif" font-size="17" font-weight="bold"><text transform="translate(11.000000, 9.000000)"><tspan x=".038" y="16">Content Window</tspan></text></g><g id="Instrumented-by-Geck" fill="#000" font-family="sans-serif" font-size="12" font-weight="normal" transform="translate(33.000000, 32.000000)"><text id="Instrumented-by"><tspan x=".478" y="11">Instrumented by</tspan></text><text id="Gecko-Profiler"><tspan x="5.487" y="25">Gecko Profiler</tspan></text></g></g><g id="Gecko-Profiler-Copy-2" transform="translate(166.000000, 0.000000)"><g id="Rectangle"><g id="path-5-link" fill="#FFF"><rect id="path-5" width="154" height="71" x="0" y="0" rx="8"/></g><rect width="153" height="70" x=".5" y=".5" stroke="#979797" rx="8"/></g><g id="Content-Window" fill="#0A84FF" font-family="sans-serif" font-size="17" font-weight="bold"><text transform="translate(11.000000, 9.000000)"><tspan x=".038" y="16">Content Window</tspan></text></g><g id="Instrumented-by-Geck" fill="#000" font-family="sans-serif" font-size="12" font-weight="normal" transform="translate(33.000000, 32.000000)"><text id="Instrumented-by"><tspan x=".478" y="11">Instrumented by</tspan></text><text id="Gecko-Profiler"><tspan x="5.487" y="25">Gecko Profiler</tspan></text></g></g><g id="Gecko-Profiler-Copy-3"><g id="Rectangle"><g id="path-6-link" fill="#FFF"><rect id="path-6" width="154" height="71" x="0" y="0" rx="8"/></g><rect width="153" height="70" x=".5" y=".5" stroke="#979797" rx="8"/></g><text id="Content-Window" fill="#0A84FF" font-family="sans-serif" font-size="17" font-weight="bold"><tspan x="11.038" y="25">Content Window</tspan></text><text id="Instrumented-by" fill="#000" font-family="sans-serif" font-size="12" font-weight="normal"><tspan x="33.478" y="43">Instrumented by</tspan></text><text id="Gecko-Profiler" fill="#000" font-family="sans-serif" font-size="12" font-weight="normal"><tspan x="38.487" y="57">Gecko Profiler</tspan></text></g></g><g id="Group-Copy" transform="translate(43.000000, 64.000000)"><g id="Rectangle-Copy-2"><g id="path-7-link" fill="#FFF"><rect id="path-7" width="254" height="87" x="0" y="0" rx="8"/></g><rect id="Rectangle" width="253" height="86" x=".5" y=".5" stroke="#979797" rx="8"/></g><g id="about-profiling" fill="#0A84FF" font-family="sans-serif" font-size="17" font-weight="bold" transform="translate(44.000000, 24.000000)"><text id="about:profiling-prof"><tspan x="23.543" y="16">about:profiling</tspan> <tspan x=".397" y="36">profiler menu button</tspan></text></g></g><text id="Browser" fill="#6F6F6F" font-family="sans-serif" font-size="25" font-weight="bold"><tspan x="113.482" y="45">Browser</tspan></text><path id="Line-Copy-7" fill="#4A4A4A" fill-rule="nonzero" stroke="#4A4A4A" stroke-linecap="square" d="M58.5,151.5 L58.5,242.5"/><polygon id="Line-Copy-7-decoration-1" fill="#4A4A4A" fill-rule="nonzero" stroke="#4A4A4A" stroke-linecap="square" points="58.5 242.5 61.5 231.7 55.5 231.7"/><text id="Services.profiler.St" fill="#0A84FF" font-family="sans-serif" font-size="12" font-weight="bold"><tspan x="72" y="183">Services.profiler.StartProfiler()</tspan></text><text id="Services.profiler.St" fill="#0A84FF" font-family="sans-serif" font-size="12" font-weight="bold"><tspan x="72" y="197">Services.profiler.StopProfiler()</tspan></text><text id="Services.profiler.ge" fill="#0A84FF" font-family="sans-serif" font-size="12" font-weight="bold"><tspan x="72" y="211">Services.profiler.getProfileDataAsync()</tspan></text><text id="..." fill="#0A84FF" font-family="sans-serif" font-size="12" font-weight="bold"><tspan x="72" y="225">...</tspan></text><g id="Group" transform="translate(314.500000, 198.000000) rotate(-23.000000) translate(-314.500000, -198.000000) translate(294.000000, 139.000000)"><polygon id="Triangle" fill="#4A4A4A" fill-rule="nonzero" points="33.5 102 38 116 29 116" transform="translate(33.500000, 109.000000) rotate(161.000000) translate(-33.500000, -109.000000)"/><path id="Path-2" stroke="#4A4A4A" d="M31.6132813,104.229492 C25.7949219,87.8271484 3.79487492,77.0282222 8.08007813,56.0361328 C9.372361,49.7055771 13.4860453,38.2510831 21.6650391,36.9541016 C31.9485239,35.323401 31.3505845,56.8829933 18.7128906,54.1875 C-2.23565933,49.7193846 -0.622463615,15.363741 3.1328125,0.0693359375"/></g></g></g></svg>