<svg xmlns="http://www.w3.org/2000/svg" xmlns:xlink="http://www.w3.org/1999/xlink" width="737" height="644" version="1.1" viewBox="0 0 737 644"><desc>Created with Sketch.</desc><defs><rect id="path-1" width="709" height="277" x="16" y="14" rx="8"/><rect id="path-2" width="329" height="310" x="17" y="315" rx="8"/><rect id="path-3" width="339" height="310" x="385" y="315" rx="8"/><rect id="path-4" width="214" height="59" x="0" y="0" rx="8"/><rect id="path-5" width="138" height="54" x="0" y="0" rx="8"/><rect id="path-6" width="81" height="42" x="0" y="0" rx="8"/><rect id="path-7" width="81" height="42" x="0" y="0" rx="8"/><rect id="path-8" width="81" height="42" x="0" y="0" rx="8"/><rect id="path-9" width="81" height="42" x="0" y="0" rx="8"/><rect id="path-10" width="81" height="42" x="0" y="0" rx="8"/><rect id="path-11" width="81" height="42" x="0" y="0" rx="8"/><rect id="path-12" width="254" height="86" x="0" y="0" rx="8"/></defs><g id="Page-1" fill="none" fill-rule="evenodd" stroke="none" stroke-width="1"><g id="New-Recording-Panel"><g id="Rectangle-Copy-3"><use fill="#D7D7DB" fill-rule="evenodd" xlink:href="#path-1"/><rect width="708" height="276" x="16.5" y="14.5" stroke="#979797" stroke-width="1" rx="8"/></g><g id="Rectangle-Copy-4"><use fill="#F2F2F2" fill-rule="evenodd" xlink:href="#path-2"/><rect width="328" height="309" x="17.5" y="315.5" stroke="#DCDBDB" stroke-width="1" rx="8"/></g><g id="Rectangle-Copy-5"><use fill="#F2F2F2" fill-rule="evenodd" xlink:href="#path-3"/><rect width="338" height="309" x="385.5" y="315.5" stroke="#DCDBDB" stroke-width="1" rx="8"/></g><text id="Instrumented-by-Geck" fill="#000" font-family="sans-serif" font-size="12" font-weight="normal"><tspan x="33" y="388">Instrumented by Gecko Profiler, no DevTools</tspan> <tspan x="33" y="402">remote debugging instrumentation is needed here.</tspan> <tspan x="33" y="430">There is currently no way to separate out the Gecko </tspan> <tspan x="33" y="444">Profiler information to a specifically targeted tab. The old </tspan> <tspan x="33" y="458">DevTools performance tool turned on the Gecko Profiler </tspan> <tspan x="33" y="472">for individual content processes instead.</tspan> <tspan x="33" y="500">The newer architecture turns it on in the parent process </tspan> <tspan x="33" y="514">in order to capture information like the compositor </tspan> <tspan x="33" y="528">thread, but also includes information from every single </tspan> <tspan x="33" y="542">content process and tabs inside of them.</tspan></text><text id="Repeat-for-all-addit" fill="#000" font-family="sans-serif" font-size="12" font-weight="normal" line-spacing="17"><tspan x="441.931" y="396">Repeat for all additional content processes.</tspan></text><g id="Group-Copy" transform="translate(487.000000, 100.000000)"><g id="Rectangle-Copy-2"><use fill="#FFF" fill-rule="evenodd" xlink:href="#path-4"/><rect width="213" height="58" x=".5" y=".5" stroke="#979797" stroke-width="1" rx="8"/></g><text id="DevTools-Client" fill="#0A84FF" font-family="sans-serif" font-size="17" font-weight="bold"><tspan x="44.395" y="34">DevTools Client</tspan></text></g><g id="Gecko-Profiler" transform="translate(90.000000, 210.000000)"><g id="Rectangle"><use fill="#FFF" fill-rule="evenodd" xlink:href="#path-5"/><rect width="137" height="53" x=".5" y=".5" stroke="#979797" stroke-width="1" rx="8"/></g><text fill="#0A84FF" font-family="sans-serif" font-size="17" font-weight="bold"><tspan x="12.895" y="24">Gecko Profiler</tspan></text><text id="C++-Native-Code" fill="#000" font-family="sans-serif" font-size="12" font-weight="normal"><tspan x="23.475" y="42">C++ Native Code</tspan></text></g><g id="Gecko-Profiler-Copy-2" transform="translate(36.000000, 564.000000)"><g id="Rectangle"><use fill="#FFF" fill-rule="evenodd" xlink:href="#path-6"/><rect width="80" height="41" x=".5" y=".5" stroke="#979797" stroke-width="1" rx="8"/></g><text id="Tab" fill="#0A84FF" font-family="sans-serif" font-size="17" font-weight="bold"><tspan x="26.015" y="26">Tab</tspan></text></g><g id="Gecko-Profiler-Copy-5" transform="translate(408.000000, 564.000000)"><g id="Rectangle"><use fill="#FFF" fill-rule="evenodd" xlink:href="#path-7"/><rect width="80" height="41" x=".5" y=".5" stroke="#979797" stroke-width="1" rx="8"/></g><text id="Tab" fill="#0A84FF" font-family="sans-serif" font-size="17" font-weight="bold"><tspan x="26.015" y="26">Tab</tspan></text></g><g id="Gecko-Profiler-Copy-4" transform="translate(248.000000, 564.000000)"><g id="Rectangle"><use fill="#FFF" fill-rule="evenodd" xlink:href="#path-8"/><rect width="80" height="41" x=".5" y=".5" stroke="#979797" stroke-width="1" rx="8"/></g><text id="Tab" fill="#0A84FF" font-family="sans-serif" font-size="17" font-weight="bold"><tspan x="26.015" y="26">Tab</tspan></text></g><g id="Gecko-Profiler-Copy-3" transform="translate(143.000000, 564.000000)"><g id="Rectangle"><use fill="#FFF" fill-rule="evenodd" xlink:href="#path-9"/><rect width="80" height="41" x=".5" y=".5" stroke="#979797" stroke-width="1" rx="8"/></g><text id="Tab" fill="#0A84FF" font-family="sans-serif" font-size="17" font-weight="bold"><tspan x="26.015" y="26">Tab</tspan></text></g><g id="Gecko-Profiler-Copy-6" transform="translate(513.000000, 564.000000)"><g id="Rectangle"><use fill="#FFF" fill-rule="evenodd" xlink:href="#path-10"/><rect width="80" height="41" x=".5" y=".5" stroke="#979797" stroke-width="1" rx="8"/></g><text id="Tab" fill="#0A84FF" font-family="sans-serif" font-size="17" font-weight="bold"><tspan x="26.015" y="26">Tab</tspan></text></g><g id="Gecko-Profiler-Copy-7" transform="translate(617.000000, 564.000000)"><g id="Rectangle"><use fill="#FFF" fill-rule="evenodd" xlink:href="#path-11"/><rect width="80" height="41" x=".5" y=".5" stroke="#979797" stroke-width="1" rx="8"/></g><text id="Tab" fill="#0A84FF" font-family="sans-serif" font-size="17" font-weight="bold"><tspan x="26.015" y="26">Tab</tspan></text></g><text id="Parent-Process" fill="#6F6F6F" font-family="sans-serif" font-size="25" font-weight="bold"><tspan x="68.478" y="64">Parent Process</tspan></text><text id="Content-Process" fill="#6F6F6F" font-family="sans-serif" font-size="25" font-weight="bold"><tspan x="84.171" y="359">Content Process</tspan></text><text id="Content-Process" fill="#6F6F6F" font-family="sans-serif" font-size="25" font-weight="bold"><tspan x="458.171" y="359">Content Process</tspan></text><g id="Group-Copy-2" transform="translate(36.000000, 86.000000)"><g id="Rectangle-Copy-2"><use fill="#FFF" fill-rule="evenodd" xlink:href="#path-12"/><rect width="253" height="85" x=".5" y=".5" stroke="#979797" stroke-width="1" rx="8"/></g><text id="DevTools-Debugger-Se" fill="#0A84FF" font-family="sans-serif" font-size="17" font-weight="bold"><tspan x="20.009" y="35">DevTools Debugger Server</tspan></text><text id="using-devtools/serve" fill="#000" font-family="sans-serif" font-size="12" font-weight="normal"><tspan x="34.793" y="62">using devtools/server/actors/perf.js</tspan></text></g><path id="Line-Copy-7" fill="#4A4A4A" stroke="#4A4A4A" stroke-linecap="square" d="M157.5,172.5 L157.5,209.5"/><path id="Line-Copy-7-decoration-1" fill="#4A4A4A" stroke="#4A4A4A" stroke-linecap="square" d="M157.5,209.5 L160.5,198.7 L154.5,198.7 L157.5,209.5 Z"/><text id="nsIProfiler" fill="#000" font-family="sans-serif" font-size="12" font-weight="normal"><tspan x="172.991" y="197">nsIProfiler</tspan></text><text id="Remote-Debugging-Pro" fill="#000" font-family="sans-serif" font-size="12" font-weight="normal" line-spacing="16"><tspan x="318.122" y="147">Remote Debugging Protocol </tspan> <tspan x="311.337" y="163">using LocalDebuggerTransport</tspan></text><path id="Line-Copy-7" fill="#4A4A4A" stroke="#4A4A4A" stroke-linecap="square" d="M486.5,121.5 L290.5,121.5"/><path id="Line-Copy-7-decoration-1" fill="#4A4A4A" stroke="#4A4A4A" stroke-linecap="square" d="M290.5,121.5 L301.3,124.5 L301.3,118.5 L290.5,121.5 Z"/></g></g></svg>