<svg xmlns="http://www.w3.org/2000/svg" xmlns:xlink="http://www.w3.org/1999/xlink" width="567" height="418" version="1.1" viewBox="0 0 567 418"><title>Untitled 2</title><desc>Created with Sketch.</desc><g id="Page-1" fill="none" fill-rule="evenodd" stroke="none" stroke-width="1"><g id="gecko-profiler" transform="translate(0.000000, 1.000000)"><g id="Gecko" transform="translate(188.000000, 0.000000)"><circle id="Oval-Copy-3" cx="87.5" cy="87.5" r="87.5" fill="#D7D7DB" fill-rule="nonzero" stroke="#737373"/><g id="Group" fill="#6F6F6F" font-family="sans-serif" font-size="25" font-weight="bold" transform="translate(50.000000, 29.000000)"><text id="Gecko"><tspan x=".286" y="24">Gecko</tspan></text></g></g><g id="Group" transform="translate(209.000000, 75.000000)"><g id="Rectangle"><g id="path-1-link" fill="#FFF"><rect id="path-1" width="138" height="54" x="0" y="0" rx="8"/></g><rect width="137" height="53" x=".5" y=".5" stroke="#979797" rx="8"/></g><g id="Gecko-Profiler" fill="#0A84FF" font-family="sans-serif" font-size="17" font-weight="bold"><text transform="translate(12.000000, 8.000000)"><tspan x=".895" y="16">Gecko Profiler</tspan></text></g><g id="C++-Native-Code" fill="#000" font-family="sans-serif" font-size="12" font-weight="normal"><text transform="translate(23.000000, 31.000000)"><tspan x=".475" y="11">C++ Native Code</tspan></text></g></g><path id="Line-Copy-6" fill="#4A4A4A" fill-rule="nonzero" stroke="#4A4A4A" stroke-linecap="square" d="M277.5,204.5 L277.5,130.5"/><polygon id="Line-Copy-6-decoration-1" fill="#4A4A4A" fill-rule="nonzero" stroke="#4A4A4A" stroke-linecap="square" points="277.5 130.5 274.5 141.3 280.5 141.3"/><path id="Line-Copy-7" fill="#4A4A4A" fill-rule="nonzero" stroke="#4A4A4A" stroke-linecap="square" d="M203.5,331.5 L232.5,260.5"/><polygon id="Line-Copy-7-decoration-1" fill="#4A4A4A" fill-rule="nonzero" stroke="#4A4A4A" stroke-linecap="square" points="232.5 260.5 225.639 269.364 231.194 271.633"/><path id="Line-Copy-7" fill="#4A4A4A" fill-rule="nonzero" stroke="#4A4A4A" stroke-linecap="square" d="M350.5,329.5 L319.5,260.5"/><polygon id="Line-Copy-7-decoration-1" fill="#4A4A4A" fill-rule="nonzero" stroke="#4A4A4A" stroke-linecap="square" points="319.5 260.5 321.189 271.581 326.663 269.122"/><g id="Group-2" transform="translate(0.000000, 330.000000)"><g id="Rectangle-Copy"><g id="path-2-link" fill="#FFF"><rect id="path-2" width="254" height="87" x="0" y="0" rx="8"/></g><rect id="Rectangle" width="253" height="86" x=".5" y=".5" stroke="#979797" rx="8"/></g><g id="new:-devtools/server" fill="#000" font-size="12" transform="translate(15.000000, 39.000000)"><text id="new:" font-family="sans-serif" font-weight="bold"><tspan x="20.97" y="11">new:</tspan></text><text id="devtools/server/actors/perf.js" font-family="sans-serif" font-weight="normal"><tspan x="48.304" y="11">devtools/server/actors/perf.js</tspan></text><text id="old:" font-family="sans-serif" font-weight="bold"><tspan x=".298" y="31">old:</tspan></text><text id="devtools/server/actors/performance.js" font-family="sans-serif" font-weight="normal"><tspan x="25.622" y="31">devtools/server/actors/performance.js</tspan></text></g><g id="DevTools-Server-Acto" fill="#0A84FF" font-family="sans-serif" font-size="17" font-weight="bold" transform="translate(32.000000, 10.000000)"><text id="DevTools-Server-Actors"><tspan x=".566" y="16">DevTools Server Actors</tspan></text></g></g><g id="Group" transform="translate(313.000000, 329.000000)"><g id="Rectangle-Copy-2"><g id="path-3-link" fill="#FFF"><rect id="path-3" width="254" height="87" x="0" y="0" rx="8"/></g><rect id="Rectangle" width="253" height="86" x=".5" y=".5" stroke="#979797" rx="8"/></g><g id="Web-Extension" fill="#0A84FF" font-family="sans-serif" font-size="17" font-weight="bold" transform="translate(67.000000, 19.000000)"><text id="about:profiling"><tspan x=".226" y="16">about:profiling</tspan></text></g><g id="Web-Extension-Copy" fill="#0A84FF" font-family="sans-serif" font-size="17" font-weight="bold" transform="translate(50.000000, 49.000000)"><text id="profiler-menu-button"><tspan x="0" y="16">profiler menu button</tspan></text></g></g><text id="XPIDL" fill="#000" font-family="sans-serif" font-size="12" font-weight="normal"><tspan x="288.659" y="194">XPIDL</tspan></text><g id="Group-3" transform="translate(209.000000, 205.000000)"><g id="Rectangle"><g id="path-4-link" fill="#FFF"><rect id="path-4" width="138" height="54" x="0" y="0" rx="8"/></g><rect width="137" height="53" x=".5" y=".5" stroke="#979797" rx="8"/></g><g id="nsIProfiler" fill="#0A84FF" font-family="sans-serif" font-size="17" font-weight="bold"><text transform="translate(28.000000, 9.000000)"><tspan x=".961" y="16">nsIProfiler</tspan></text></g><g id="JS-Interface" fill="#000" font-family="sans-serif" font-size="12" font-weight="normal"><text transform="translate(37.000000, 31.000000)"><tspan x=".484" y="11">JS Interface</tspan></text></g></g></g></g></svg>